# xmcd CD database file
#
# Track frame offsets:
#	150
#	12055
#	27465
#	44997
#	59644
#	77249
#	97753
#	111954
#	131223
#	147877
#	170170
#	186427
#	198584
#	214398
#	231193
#	255749
#	270264
#	295088
#	310415
#	333248
#
# Disc length: 4736 seconds
#
# Revision: 0
# Processed by: cddbd v1.5.2PL0 Copyright (c) Steve Scherf et al.
# Submitted via: CD2WAV32(JP) R3.22
#
DISCID=39127e14
DTITLE=Texas Eastside Kings - Texas Eastside Kings
DYEAR=2002
DGENRE=Blues
TTITLE0=Cut You Loose
TTITLE1=I Found Someone
TTITLE2=Fraulein
TTITLE3=Just Because My Beard Is White
TTITLE4=You Hurt Me
TTITLE5=Tell Me
TTITLE6=Mrs. Dee
TTITLE7=Hoochie Mamma
TTITLE8=Stranded
TTITLE9=Been A Long Time
TTITLE10=Love Of Mine
TTITLE11=You Hurt Me More
TTITLE12=Kuyk's Back
TTITLE13=Can't Cut You Loose
TTITLE14=It Hurts No More (No Pain)
TTITLE15=I Found Someone (S.A. Whistle)
TTITLE16=Into More Eastside
TTITLE17=Can I Change My Mind
TTITLE18=I Love The Woman
TTITLE19=Let Them Talk
EXTD=
EXTT0=Cut You Loose
EXTT1=I Found Someone
EXTT2=Fraulein
EXTT3=Just Because My Beard Is White
EXTT4=You Hurt Me
EXTT5=Tell Me
EXTT6=Mrs. Dee
EXTT7=Hoochie Mamma
EXTT8=Stranded
EXTT9=Been A Long Time
EXTT10=Love Of Mine
EXTT11=You Hurt Me More
EXTT12=Kuyk's Back
EXTT13=Can't Cut You Loose
EXTT14=It Hurts No More (No Pain)
EXTT15=I Found Someone (S.A. Whistle)
EXTT16=Into More Eastside
EXTT17=Can I Change My Mind
EXTT18=I Love The Woman
EXTT19=Let Them Talk
PLAYORDER=
